<svg width="136" height="25" viewBox="0 0 136 25" fill="none" xmlns="http://www.w3.org/2000/svg">
<path d="M74.2089 9.87418C73.4294 8.41271 72.2534 7.20589 70.8188 6.39518C69.3163 5.59768 67.6426 5.18567 65.9451 5.19548C64.2477 5.2053 62.5787 5.63663 61.0853 6.45145C59.6177 7.27302 58.4054 8.49057 57.5838 9.96795C56.7348 11.5133 56.2994 13.2553 56.3207 15.0223C56.2935 16.7984 56.7359 18.5496 57.6024 20.0955C58.4712 21.5998 59.7558 22.8154 61.2989 23.5932C62.9634 24.458 64.8142 24.8929 66.6858 24.8592C69.9458 24.8592 72.4535 23.8089 74.116 21.7553L74.4318 21.3802L71.2461 18.1544L71.0696 18.3232C70.547 18.8881 69.9146 19.3381 69.2121 19.6454C68.4554 19.9323 67.6518 20.0722 66.8437 20.058C65.7003 20.1043 64.5728 19.7753 63.6301 19.1202C62.8646 18.5472 62.3171 17.7263 62.0791 16.7947H75.3605V16.5884C75.4534 15.3693 75.4627 15.163 75.4627 15.1067C75.4916 13.2833 75.0601 11.4826 74.2089 9.87418ZM61.9491 13.1656C62.1036 12.2233 62.5683 11.3611 63.2679 10.7181C64.0512 10.0709 65.043 9.73713 66.0542 9.7804C67.0741 9.74366 68.0699 10.0989 68.8406 10.7744C69.5395 11.4102 70.0044 12.2663 70.1594 13.2031L61.9491 13.1656Z" fill="#0E0B1E"/>
<path d="M88.1033 5.19502C86.9332 5.18126 85.7729 5.4111 84.6947 5.87018C83.8703 6.21992 83.1199 6.72606 82.4842 7.36118V5.19502H77.1345V24.8874H82.7072V15.3788C82.5975 14.0358 82.9846 12.6995 83.7938 11.6279C84.1615 11.221 84.6133 10.9008 85.1174 10.6901C85.6214 10.4794 86.1652 10.3834 86.7102 10.4088C87.1764 10.3773 87.6436 10.4548 88.0753 10.6353C88.507 10.8159 88.8916 11.0946 89.1993 11.4497C89.8675 12.4083 90.1829 13.5726 90.0909 14.7412V24.8593H95.6635V13.8878C95.6635 11.0746 94.9577 8.85218 93.5738 7.39869C92.8656 6.66508 92.0127 6.08983 91.0704 5.71021C90.128 5.3306 89.1172 5.15507 88.1033 5.19502V5.19502Z" fill="#0E0B1E"/>
<path d="M107.385 20.0019V24.8781C107.035 24.9015 106.685 24.9015 106.335 24.8781C104.839 24.7845 103.383 24.3552 102.072 23.6215C100.585 22.7844 99.3572 21.5478 98.5242 20.0488C97.936 19.0688 97.5535 17.9772 97.4004 16.8417C97.2704 15.6227 97.4004 3.30082 97.4004 3.30082L102.973 0V5.19505H107.375V9.88372H102.973V16.0259C103.088 16.9606 103.484 17.8374 104.106 18.539C104.715 19.266 105.575 19.732 106.512 19.8425C106.736 19.8806 106.962 19.8994 107.19 19.8987H107.338L107.385 20.0019Z" fill="#0E0B1E"/>
<path d="M114.508 5.19507V24.8969H109.075V8.46776L112.576 6.35786L114.499 5.19507H114.508Z" fill="#0E0B1E"/>
<path d="M38.6369 20.8363C37.6507 22.1824 36.3398 23.2513 34.8287 23.9411C33.3177 24.6309 31.6569 24.9187 30.0045 24.7771C28.3522 24.6355 26.7632 24.0692 25.3889 23.1321C24.0147 22.195 22.9008 20.9184 22.1535 19.4237C21.4062 17.929 21.0503 16.2661 21.1197 14.5932C21.1891 12.9204 21.6814 11.2933 22.5499 9.8669C23.4183 8.44052 24.6339 7.26233 26.0809 6.44452C27.528 5.62671 29.1583 5.19649 30.8166 5.19485C32.3403 5.19162 33.843 5.5538 35.201 6.25156C36.5589 6.94933 37.7333 7.96273 38.6276 9.20835L34.9125 12.7999C34.4223 11.8805 33.6422 11.1527 32.6959 10.7317C31.7496 10.3107 30.6912 10.2206 29.6884 10.4758C28.6857 10.731 27.796 11.3168 27.1604 12.1404C26.5248 12.964 26.1796 13.9782 26.1796 15.0223C26.1796 16.0664 26.5248 17.0806 27.1604 17.9042C27.796 18.7278 28.6857 19.3136 29.6884 19.5688C30.6912 19.824 31.7496 19.7339 32.6959 19.3129C33.6422 18.8919 34.4223 18.1641 34.9125 17.2447L38.6369 20.8363Z" fill="#0E0B1E"/>
<path d="M56.2 20.8365C55.2139 22.1826 53.9029 23.2515 52.3918 23.9413C50.8808 24.6311 49.22 24.9189 47.5676 24.7773C45.9153 24.6357 44.3263 24.0694 42.952 23.1323C41.5778 22.1953 40.464 20.9186 39.7167 19.4239C38.9694 17.9292 38.6134 16.2663 38.6828 14.5934C38.7522 12.9206 39.2445 11.2935 40.113 9.86713C40.9814 8.44075 42.197 7.26256 43.6441 6.44475C45.0911 5.62694 46.7214 5.19672 48.3797 5.19507C49.9031 5.19337 51.4053 5.55621 52.763 6.25385C54.1208 6.95149 55.2954 7.96406 56.1907 9.20858L52.4756 12.8001C51.9854 11.8808 51.2054 11.1529 50.259 10.7319C49.3127 10.3109 48.2543 10.2209 47.2515 10.4761C46.2488 10.7312 45.3591 11.3171 44.7235 12.1406C44.0879 12.9642 43.7427 13.9784 43.7427 15.0225C43.7427 16.0666 44.0879 17.0808 44.7235 17.9044C45.3591 18.728 46.2488 19.3138 47.2515 19.569C48.2543 19.8242 49.3127 19.7342 50.259 19.3132C51.2054 18.8922 51.9854 18.1643 52.4756 17.245L56.2 20.8365Z" fill="#0E0B1E"/>
<path d="M125.923 10.3432C126.841 10.3432 127.739 10.6182 128.503 11.1334C129.267 11.6486 129.862 12.3809 130.213 13.2376C130.565 14.0944 130.657 15.0371 130.478 15.9466C130.298 16.8561 129.856 17.6916 129.207 18.3473C128.557 19.003 127.73 19.4496 126.829 19.6305C125.928 19.8114 124.994 19.7185 124.146 19.3637C123.297 19.0088 122.572 18.4078 122.062 17.6368C121.551 16.8657 121.279 15.9592 121.279 15.0319C121.279 13.7884 121.768 12.5958 122.639 11.7165C123.51 10.8372 124.691 10.3432 125.923 10.3432V10.3432ZM125.923 5.19507C123.998 5.19507 122.116 5.77144 120.515 6.85129C118.915 7.93115 117.667 9.46599 116.93 11.2617C116.194 13.0575 116.001 15.0334 116.376 16.9398C116.752 18.8461 117.679 20.5972 119.04 21.9716C120.401 23.346 122.136 24.282 124.024 24.6611C125.912 25.0403 127.869 24.8457 129.648 24.1019C131.426 23.3581 132.946 22.0985 134.016 20.4824C135.086 18.8662 135.656 16.9662 135.656 15.0225C135.656 13.732 135.405 12.454 134.915 11.2617C134.426 10.0694 133.709 8.98603 132.806 8.07346C131.902 7.1609 130.829 6.43701 129.648 5.94314C128.467 5.44926 127.201 5.19507 125.923 5.19507V5.19507Z" fill="#0E0B1E"/>
<path d="M15.9842 22.2899L16.2071 22.0836L16.2721 22.0086C16.3929 21.8867 16.5136 21.7741 16.6158 21.6522C17.8933 20.3882 18.7915 18.7858 19.2071 17.0292C19.3316 16.4528 19.4 15.8655 19.4114 15.2756V6.69536L14.3867 9.75238V15.1631C14.3854 15.4537 14.3511 15.7431 14.2846 16.0258C14.1247 16.8213 13.7631 17.5612 13.235 18.1732C12.9107 18.5463 12.5279 18.8631 12.1019 19.111C11.5782 19.4324 10.9965 19.6459 10.3906 19.7392C9.78468 19.8326 9.16645 19.8039 8.57156 19.6548C7.97667 19.5058 7.41689 19.2393 6.92451 18.8707C6.43212 18.5021 6.01688 18.0388 5.70271 17.5074C5.37411 16.8795 5.1848 16.1868 5.14791 15.4776C5.11102 14.7683 5.22744 14.0594 5.48909 13.4002C5.70187 12.8304 6.03095 12.3123 6.45498 11.8793C6.879 11.4463 7.38849 11.1083 7.95034 10.887L8.15467 10.812H8.24754L8.5819 10.6995H8.63763C9.13306 10.5616 9.64832 10.5108 10.1608 10.5495C10.2703 10.5554 10.3791 10.5711 10.4859 10.5963C10.6307 10.61 10.7739 10.6382 10.9131 10.6807L11.1918 10.7651C11.306 10.7974 11.4178 10.8382 11.5261 10.887C11.6348 10.9293 11.7404 10.9794 11.8419 11.0371C11.95 11.0877 12.0554 11.144 12.1577 11.2059C12.3323 11.317 12.4998 11.4392 12.6592 11.5716L12.7428 11.6466V5.80452C12.2627 5.57887 11.7576 5.41202 11.2382 5.30752C10.5957 5.18375 9.94112 5.13654 9.28777 5.16686C7.6736 5.24722 6.10813 5.75145 4.74607 6.62972C3.00676 7.71052 1.63833 9.30477 0.825999 11.1967C0.0136723 13.0886 -0.203325 15.1868 0.204379 17.2074C0.204379 17.3574 0.269393 17.5074 0.306544 17.6481C0.343695 17.7888 0.390133 17.9951 0.44586 18.1732C0.625793 18.7564 0.858988 19.3215 1.14244 19.8612C1.18018 19.9484 1.22362 20.0329 1.27247 20.1143C4.17952 25.3281 11.5818 26.2377 15.6963 22.4774L15.9842 22.2899Z" fill="#0E0B1E"/>
<path d="M17.5723 22.5618C17.4423 22.7025 17.3216 22.8431 17.173 22.9838C17.1359 23.0363 17.0955 23.0864 17.0522 23.1338V23.1338L16.7179 23.4058H16.6714C16.5854 23.4975 16.4922 23.5822 16.3928 23.659C15.9409 24.0675 15.4563 24.4377 14.9439 24.7655H19.4113V19.8799C18.9075 20.8454 18.29 21.7459 17.5723 22.5618V22.5618Z" fill="#0E0B1E"/>
</svg>
