<svg width="136" height="26" viewBox="0 0 136 26" fill="none" xmlns="http://www.w3.org/2000/svg">
<path d="M74.2089 10.6618C73.4294 9.20031 72.2534 7.99348 70.8188 7.18278C69.3163 6.38528 67.6426 5.97327 65.9451 5.98308C64.2477 5.99289 62.5787 6.42422 61.0853 7.23904C59.6177 8.06062 58.4054 9.27817 57.5838 10.7555C56.7348 12.3008 56.2994 14.0429 56.3207 15.8099C56.2935 17.586 56.7359 19.3372 57.6024 20.8831C58.4712 22.3874 59.7558 23.603 61.2989 24.3808C62.9634 25.2456 64.8142 25.6805 66.6858 25.6468C69.9458 25.6468 72.4535 24.5965 74.116 22.5429L74.4318 22.1678L71.2461 18.942L71.0696 19.1108C70.547 19.6757 69.9146 20.1257 69.2121 20.433C68.4554 20.7199 67.6518 20.8598 66.8437 20.8456C65.7003 20.8919 64.5728 20.5629 63.6301 19.9078C62.8646 19.3348 62.3171 18.5139 62.0791 17.5823H75.3605V17.376C75.4534 16.1569 75.4627 15.9506 75.4627 15.8943C75.4916 14.0709 75.0601 12.2702 74.2089 10.6618ZM61.9491 13.9532C62.1036 13.0109 62.5683 12.1487 63.2679 11.5057C64.0512 10.8585 65.043 10.5247 66.0542 10.568C67.0741 10.5313 68.0699 10.8865 68.8406 11.562C69.5395 12.1978 70.0044 13.0539 70.1594 13.9907L61.9491 13.9532Z" fill="#89D4F0"/>
<path d="M88.1033 5.98261C86.9332 5.96886 85.7729 6.1987 84.6947 6.65778C83.8703 7.00752 83.1199 7.51366 82.4842 8.14878V5.98261H77.1345V25.675H82.7072V16.1664C82.5975 14.8234 82.9846 13.4871 83.7938 12.4155C84.1615 12.0086 84.6133 11.6884 85.1174 11.4777C85.6214 11.267 86.1652 11.171 86.7102 11.1964C87.1764 11.1649 87.6436 11.2424 88.0753 11.4229C88.507 11.6035 88.8916 11.8822 89.1993 12.2373C89.8675 13.1959 90.1829 14.3602 90.0909 15.5287V25.6469H95.6635V14.6754C95.6635 11.8622 94.9577 9.63978 93.5738 8.18629C92.8656 7.45267 92.0127 6.87743 91.0704 6.49781C90.128 6.1182 89.1172 5.94267 88.1033 5.98261V5.98261Z" fill="#89D4F0"/>
<path d="M107.385 20.7895V25.6657C107.035 25.6891 106.685 25.6891 106.335 25.6657C104.839 25.5721 103.383 25.1428 102.072 24.4091C100.585 23.572 99.3572 22.3354 98.5242 20.8364C97.936 19.8563 97.5535 18.7648 97.4004 17.6293C97.2704 16.4103 97.4004 4.08842 97.4004 4.08842L102.973 0.787598V5.98265H107.375V10.6713H102.973V16.8135C103.088 17.7482 103.484 18.625 104.106 19.3266C104.715 20.0536 105.575 20.5196 106.512 20.6301C106.736 20.6682 106.962 20.687 107.19 20.6863H107.338L107.385 20.7895Z" fill="#89D4F0"/>
<path d="M114.508 5.98267V25.6845H109.075V9.25536L112.576 7.14546L114.499 5.98267H114.508Z" fill="#89D4F0"/>
<path d="M38.6369 21.6239C37.6507 22.97 36.3398 24.0389 34.8287 24.7287C33.3177 25.4185 31.6569 25.7063 30.0045 25.5647C28.3522 25.4231 26.7632 24.8568 25.3889 23.9197C24.0147 22.9826 22.9008 21.706 22.1535 20.2113C21.4062 18.7166 21.0503 17.0537 21.1197 15.3808C21.1891 13.708 21.6814 12.0809 22.5499 10.6545C23.4183 9.22812 24.6339 8.04993 26.0809 7.23212C27.528 6.4143 29.1583 5.98409 30.8166 5.98244C32.3403 5.97922 33.843 6.3414 35.201 7.03916C36.5589 7.73692 37.7333 8.75032 38.6276 9.99595L34.9125 13.5875C34.4223 12.6681 33.6422 11.9403 32.6959 11.5193C31.7496 11.0983 30.6912 11.0082 29.6884 11.2634C28.6857 11.5186 27.796 12.1044 27.1604 12.928C26.5248 13.7516 26.1796 14.7658 26.1796 15.8099C26.1796 16.854 26.5248 17.8682 27.1604 18.6918C27.796 19.5154 28.6857 20.1012 29.6884 20.3564C30.6912 20.6116 31.7496 20.5215 32.6959 20.1005C33.6422 19.6795 34.4223 18.9517 34.9125 18.0323L38.6369 21.6239Z" fill="#89D4F0"/>
<path d="M56.2 21.6241C55.2139 22.9702 53.9029 24.0391 52.3918 24.7289C50.8808 25.4187 49.22 25.7065 47.5676 25.5649C45.9153 25.4233 44.3263 24.857 42.952 23.9199C41.5778 22.9829 40.464 21.7062 39.7167 20.2115C38.9694 18.7168 38.6134 17.0539 38.6828 15.381C38.7522 13.7082 39.2445 12.0811 40.113 10.6547C40.9814 9.22835 42.197 8.05016 43.6441 7.23235C45.0911 6.41453 46.7214 5.98432 48.3797 5.98267C49.9031 5.98097 51.4053 6.3438 52.763 7.04144C54.1208 7.73908 55.2954 8.75166 56.1907 9.99618L52.4756 13.5877C51.9854 12.6684 51.2054 11.9405 50.259 11.5195C49.3127 11.0985 48.2543 11.0085 47.2515 11.2637C46.2488 11.5188 45.3591 12.1047 44.7235 12.9282C44.0879 13.7518 43.7427 14.766 43.7427 15.8101C43.7427 16.8542 44.0879 17.8684 44.7235 18.692C45.3591 19.5156 46.2488 20.1014 47.2515 20.3566C48.2543 20.6118 49.3127 20.5218 50.259 20.1008C51.2054 19.6798 51.9854 18.9519 52.4756 18.0326L56.2 21.6241Z" fill="#89D4F0"/>
<path d="M125.923 11.1308C126.841 11.1308 127.739 11.4058 128.503 11.921C129.267 12.4362 129.862 13.1685 130.213 14.0252C130.565 14.882 130.657 15.8247 130.478 16.7342C130.298 17.6437 129.856 18.4792 129.207 19.1349C128.557 19.7906 127.73 20.2372 126.829 20.4181C125.928 20.599 124.994 20.5061 124.146 20.1513C123.297 19.7964 122.572 19.1954 122.062 18.4244C121.551 17.6533 121.279 16.7468 121.279 15.8195C121.279 14.576 121.768 13.3834 122.639 12.5041C123.51 11.6248 124.691 11.1308 125.923 11.1308V11.1308ZM125.923 5.98267C123.998 5.98267 122.116 6.55904 120.515 7.63889C118.915 8.71875 117.667 10.2536 116.93 12.0493C116.194 13.8451 116.001 15.821 116.376 17.7274C116.752 19.6337 117.679 21.3848 119.04 22.7592C120.401 24.1336 122.136 25.0696 124.024 25.4487C125.912 25.8279 127.869 25.6333 129.648 24.8895C131.426 24.1457 132.946 22.8861 134.016 21.27C135.086 19.6538 135.656 17.7538 135.656 15.8101C135.656 14.5196 135.405 13.2416 134.915 12.0493C134.426 10.857 133.709 9.77362 132.806 8.86106C131.902 7.9485 130.829 7.22461 129.648 6.73074C128.467 6.23686 127.201 5.98267 125.923 5.98267V5.98267Z" fill="#89D4F0"/>
<path d="M15.9842 23.0775L16.2071 22.8712L16.2721 22.7962C16.3929 22.6743 16.5136 22.5617 16.6158 22.4398C17.8933 21.1758 18.7915 19.5734 19.2071 17.8168C19.3316 17.2404 19.4 16.6531 19.4114 16.0632V7.48296L14.3867 10.54V15.9507C14.3854 16.2413 14.3511 16.5307 14.2846 16.8134C14.1247 17.6089 13.7631 18.3488 13.235 18.9608C12.9107 19.3339 12.5279 19.6507 12.1019 19.8986C11.5782 20.22 10.9965 20.4335 10.3906 20.5268C9.78468 20.6202 9.16645 20.5915 8.57156 20.4424C7.97667 20.2934 7.41689 20.0269 6.92451 19.6583C6.43212 19.2897 6.01688 18.8264 5.70271 18.295C5.37411 17.6671 5.1848 16.9744 5.14791 16.2652C5.11102 15.5559 5.22744 14.847 5.48909 14.1878C5.70187 13.618 6.03095 13.0999 6.45498 12.6669C6.879 12.2339 7.38849 11.8959 7.95034 11.6746L8.15467 11.5996H8.24754L8.5819 11.4871H8.63763C9.13306 11.3492 9.64832 11.2984 10.1608 11.337C10.2703 11.343 10.3791 11.3586 10.4859 11.3839C10.6307 11.3976 10.7739 11.4258 10.9131 11.4683L11.1918 11.5527C11.306 11.585 11.4178 11.6258 11.5261 11.6746C11.6348 11.7169 11.7404 11.767 11.8419 11.8247C11.95 11.8753 12.0554 11.9316 12.1577 11.9935C12.3323 12.1046 12.4998 12.2268 12.6592 12.3592L12.7428 12.4342V6.59211C12.2627 6.36647 11.7576 6.19961 11.2382 6.09511C10.5957 5.97135 9.94112 5.92414 9.28777 5.95446C7.6736 6.03481 6.10813 6.53905 4.74607 7.41732C3.00676 8.49812 1.63833 10.0924 0.825999 11.9843C0.0136723 13.8762 -0.203325 15.9744 0.204379 17.995C0.204379 18.145 0.269393 18.295 0.306544 18.4357C0.343695 18.5764 0.390133 18.7827 0.44586 18.9608C0.625793 19.544 0.858988 20.1091 1.14244 20.6488C1.18018 20.736 1.22362 20.8205 1.27247 20.9019C4.17952 26.1157 11.5818 27.0253 15.6963 23.265L15.9842 23.0775Z" fill="#89D4F0"/>
<path d="M17.5723 23.3494C17.4423 23.4901 17.3216 23.6307 17.173 23.7714C17.1359 23.8239 17.0955 23.874 17.0522 23.9214V23.9214L16.7179 24.1934H16.6714C16.5854 24.2851 16.4922 24.3698 16.3928 24.4466C15.9409 24.8551 15.4563 25.2253 14.9439 25.5531H19.4113V20.6675C18.9075 21.633 18.29 22.5335 17.5723 23.3494V23.3494Z" fill="#89D4F0"/>
</svg>
